<svg width="51" height="44" viewBox="0 0 51 44" fill="none" xmlns="http://www.w3.org/2000/svg">
<g id="paper 1" clip-path="url(#clip0_16_141)">
<g id="030---Paper-Stack">
<path id="Path" fill-rule="evenodd" clip-rule="evenodd" d="M50.4409 25.3834L48.5223 22.7586H49.7083C50.0269 22.7582 50.3199 22.6066 50.4725 22.3633C50.625 22.12 50.6129 21.8236 50.4409 21.5903L39.3393 6.41793C39.1809 6.19923 38.9039 6.06725 38.6068 6.06897H11.9734C11.6763 6.06725 11.3992 6.19923 11.2409 6.41793L0.139303 21.5903C-0.0327482 21.8236 -0.044862 22.12 0.107706 22.3633C0.260275 22.6066 0.553238 22.7582 0.87185 22.7586H2.05788L0.139303 25.3834C-0.0327482 25.6167 -0.044862 25.9131 0.107706 26.1564C0.260275 26.3997 0.553238 26.5513 0.87185 26.5517H2.05788L0.139303 29.1766C-0.0327482 29.4098 -0.044862 29.7062 0.107706 29.9495C0.260275 30.1928 0.553238 30.3444 0.87185 30.3448H2.05788L0.139303 32.9697C-0.0327482 33.2029 -0.044862 33.4993 0.107706 33.7426C0.260275 33.9859 0.553238 34.1375 0.87185 34.1379H2.05788L0.139303 36.7628C-0.0327482 36.996 -0.044862 37.2924 0.107706 37.5357C0.260275 37.779 0.553238 37.9306 0.87185 37.931H49.7083C50.0269 37.9306 50.3199 37.779 50.4725 37.5357C50.625 37.2924 50.6129 36.996 50.4409 36.7628L48.5223 34.1379H49.7083C50.0269 34.1375 50.3199 33.9859 50.4725 33.7426C50.625 33.4993 50.6129 33.2029 50.4409 32.9697L48.5223 30.3448H49.7083C50.0269 30.3444 50.3199 30.1928 50.4725 29.9495C50.625 29.7062 50.6129 29.4098 50.4409 29.1766L48.5223 26.5517H49.7083C50.0269 26.5513 50.3199 26.3997 50.4725 26.1564C50.625 25.9131 50.6129 25.6167 50.4409 25.3834Z" fill="#B0D3F0"/>
<path id="Path_2" fill-rule="evenodd" clip-rule="evenodd" d="M11.9849 11.8072C11.667 11.8068 11.3744 11.656 11.2215 11.4135C11.0685 11.1711 11.0793 10.8754 11.2497 10.6419L12.673 8.69607C12.8331 8.47721 13.1108 8.34472 13.409 8.34483H17.4415C17.9232 8.34483 18.3136 8.68448 18.3136 9.10345C18.3136 9.52242 17.9232 9.86207 17.4415 9.86207H13.8878L12.7218 11.4552C12.5617 11.6746 12.2836 11.8074 11.9849 11.8072Z" fill="white"/>
<path id="Path_3" fill-rule="evenodd" clip-rule="evenodd" d="M49.7083 26.5517H0.87185C0.553238 26.5513 0.260275 26.3997 0.107706 26.1564C-0.044862 25.9131 -0.0327482 25.6167 0.139303 25.3834L2.05788 22.7586H48.5223L50.4409 25.3834C50.6129 25.6167 50.625 25.9131 50.4725 26.1564C50.3199 26.3997 50.0269 26.5513 49.7083 26.5517Z" fill="#3B97D3"/>
<path id="Path_4" fill-rule="evenodd" clip-rule="evenodd" d="M49.7083 30.3448H0.87185C0.553238 30.3444 0.260275 30.1928 0.107706 29.9495C-0.044862 29.7062 -0.0327482 29.4098 0.139303 29.1766L2.05788 26.5517H48.5223L50.4409 29.1766C50.6129 29.4098 50.625 29.7062 50.4725 29.9495C50.3199 30.1928 50.0269 30.3444 49.7083 30.3448Z" fill="#2980BA"/>
<path id="Path_5" fill-rule="evenodd" clip-rule="evenodd" d="M49.7083 34.1379H0.87185C0.553238 34.1375 0.260275 33.9859 0.107706 33.7426C-0.044862 33.4993 -0.0327482 33.2029 0.139303 32.9697L2.05788 30.3448H48.5223L50.4409 32.9697C50.6129 33.2029 50.625 33.4993 50.4725 33.7426C50.3199 33.9859 50.0269 34.1375 49.7083 34.1379Z" fill="#3B97D3"/>
<path id="Path_6" fill-rule="evenodd" clip-rule="evenodd" d="M49.7083 37.931H0.87185C0.553238 37.9306 0.260275 37.779 0.107706 37.5357C-0.044862 37.2924 -0.0327482 36.996 0.139303 36.7628L2.05788 34.1379H48.5223L50.4409 36.7628C50.6129 36.996 50.625 37.2924 50.4725 37.5357C50.3199 37.779 50.0269 37.9306 49.7083 37.931Z" fill="#2980BA"/>
</g>
</g>
<defs>
<clipPath id="clip0_16_141">
<rect width="50.5806" height="44" fill="white"/>
</clipPath>
</defs>
</svg>
